<svg xmlns="http://www.w3.org/2000/svg" version="1.1" xmlns:xlink="http://www.w3.org/1999/xlink" width="200" height="200"><svg xmlns="http://www.w3.org/2000/svg" version="1.1" xmlns:xlink="http://www.w3.org/1999/xlink" viewBox="0 0 200 200"><rect width="200" height="200" fill="url('#gradient')"></rect><defs><linearGradient id="SvgjsLinearGradient1001" gradientTransform="rotate(0 0.5 0.5)"><stop offset="0%" stop-color="#000000"></stop><stop offset="100%" stop-color="#000000"></stop></linearGradient></defs><g><g fill="#ffffff" transform="matrix(6.580564263322884,0,0,6.580564263322884,12.739998838931413,146.79206780879102)" stroke="#ffffff" stroke-width="1.25"><path d="M12.71-7.60L12.71-1.76Q11.92-0.88 10.40-0.34Q8.88 0.20 7.06 0.20L7.06 0.20Q4.27 0.20 2.60-1.51Q0.93-3.22 0.81-6.27L0.81-6.27L0.80-7.50Q0.80-9.60 1.54-11.17Q2.29-12.73 3.67-13.58Q5.05-14.42 6.87-14.42L6.87-14.42Q9.52-14.42 10.99-13.21Q12.46-11.99 12.71-9.58L12.71-9.58L9.40-9.58Q9.23-10.77 8.64-11.28Q8.06-11.79 6.98-11.79L6.98-11.79Q5.69-11.79 4.99-10.69Q4.29-9.60 4.28-7.57L4.28-7.57L4.28-6.71Q4.28-4.58 5.00-3.51Q5.73-2.44 7.29-2.44L7.29-2.44Q8.63-2.44 9.29-3.04L9.29-3.04L9.29-5.24L6.90-5.24L6.90-7.60L12.71-7.60ZM20.48 0L14.71 0L14.71-14.22L19.81-14.22Q22.56-14.22 23.99-13.21Q25.42-12.21 25.42-10.29L25.42-10.29Q25.42-9.19 24.91-8.41Q24.40-7.63 23.42-7.26L23.42-7.26Q24.53-6.96 25.13-6.16Q25.72-5.36 25.72-4.21L25.72-4.21Q25.72-2.12 24.40-1.07Q23.08-0.02 20.48 0L20.48 0ZM20.54-6.04L18.13-6.04L18.13-2.64L20.38-2.64Q21.31-2.64 21.81-3.06Q22.30-3.49 22.30-4.26L22.30-4.26Q22.30-6.04 20.54-6.04L20.54-6.04ZM18.13-11.57L18.13-8.29L19.92-8.29Q21.04-8.30 21.52-8.70Q22.00-9.10 22.00-9.88L22.00-9.88Q22.00-10.78 21.48-11.18Q20.97-11.57 19.81-11.57L19.81-11.57L18.13-11.57Z"></path></g></g></svg><style>@media (prefers-color-scheme: light) { :root { filter: none; } }
@media (prefers-color-scheme: dark) { :root { filter: none; } }
</style></svg>