<?xml version="1.0" standalone="no"?>
<!DOCTYPE svg PUBLIC "-//W3C//DTD SVG 20010904//EN"
 "http://www.w3.org/TR/2001/REC-SVG-20010904/DTD/svg10.dtd">
<svg version="1.0" xmlns="http://www.w3.org/2000/svg"
 width="512.000000pt" height="512.000000pt" viewBox="0 0 512.000000 512.000000"
 preserveAspectRatio="xMidYMid meet">
<metadata>
Created by potrace 1.11, written by Peter Selinger 2001-2013
</metadata>
<g transform="translate(0.000000,512.000000) scale(0.100000,-0.100000)"
fill="#000000" stroke="none">
<path d="M2200 5114 c-486 -42 -901 -196 -1273 -472 -406 -301 -660 -713 -659
-1067 0 -153 32 -267 105 -375 183 -270 520 -427 1122 -523 l80 -13 -3 -39
c-1 -22 -27 -341 -57 -708 -30 -367 -55 -706 -55 -753 0 -513 463 -927 977
-874 115 12 191 33 282 75 40 19 75 35 77 35 2 0 16 -23 30 -52 108 -212 331
-349 571 -348 284 1 553 214 617 490 23 95 20 198 -19 660 -19 228 -35 433
-35 455 l0 40 110 18 c456 74 737 273 779 552 40 270 -144 600 -467 838 l-102
75 19 23 c251 319 158 801 -236 1231 -352 383 -843 635 -1388 714 -101 14
-391 25 -475 18z m179 -285 c33 -12 61 -52 61 -89 0 -28 -52 -80 -80 -80 -59
0 -110 63 -91 113 9 24 37 51 61 60 8 3 15 6 16 6 1 1 15 -4 33 -10z m485 -60
c156 -39 283 -87 436 -165 219 -111 358 -213 526 -386 193 -199 296 -384 324
-578 12 -87 -2 -130 -49 -149 -25 -11 -37 -11 -61 -1 -40 16 -50 37 -67 133
-16 95 -50 179 -110 272 -225 349 -643 617 -1128 724 -70 16 -95 26 -112 46
-27 31 -29 71 -7 103 34 49 57 49 248 1z m781 -1694 c176 -35 374 -116 518
-212 91 -60 247 -210 299 -286 65 -96 100 -181 105 -255 5 -62 3 -69 -21 -91
-34 -32 -88 -33 -117 -5 -11 12 -27 50 -35 87 -26 114 -113 235 -246 341 -193
155 -422 245 -675 265 -101 8 -119 12 -139 33 -37 38 -36 88 4 125 26 25 30
25 127 20 55 -3 136 -13 180 -22z m-1717 -441 l91 -7 -25 -49 c-61 -120 -83
-313 -48 -428 30 -102 124 -226 220 -291 122 -83 343 -163 539 -195 61 -10
113 -20 117 -23 3 -3 -11 -215 -32 -471 -22 -256 -40 -494 -40 -530 l0 -65
-48 -27 c-146 -82 -334 -109 -507 -73 -87 18 -234 90 -301 147 -149 127 -244
306 -259 489 -5 52 10 279 49 749 30 371 58 699 61 728 l6 52 43 0 c24 0 84
-3 134 -6z m1857 -1059 c2 -22 12 -121 20 -220 65 -764 64 -753 35 -847 -69
-223 -280 -360 -508 -328 -200 28 -357 174 -398 370 -14 67 -12 98 26 557 22
268 40 491 40 497 0 8 116 11 390 11 l390 0 5 -40z"/>
</g>
</svg>
